<svg xmlns="http://www.w3.org/2000/svg" width="103" height="48" viewBox="0 0 103 48" fill="#fff">
  <path d="M11.92 25.76q0-2.05-1.2-3.47t-3.23-1.81q2.06-1.17 2.06-3.68 0-2.19-1.39-3.41-1.3-1.15-3.52-1.15H0v19.04h5.95q2.5 0 4.24-1.55t1.73-3.97M8.45 16.8q0 1.55-1.01 2.5t-2.56.97H1.07v-6.94h3.65q1.57 0 2.67.96t1.06 2.51m2.4 8.96q0 1.97-1.44 3.2t-3.44 1.23h-4.9v-8.83h4.9q2.06 0 3.42 1.17 1.46 1.23 1.46 3.23M25 31.28V20.27h-1.1v1.92q-1.76-2.08-4.4-2.08-2.4 0-4.05 1.65t-1.63 4.03 1.66 4.05 4.02 1.63q2.67 0 4.4-2.08v1.89zM24.12 25.78a1 1 0 01-9.23 0 1 1 0 019.23 0M36.76 31.29v-6.7q0-2.1-1.1-3.27t-3.14-1.18q-2.43 0-3.18 1.47v-1.33h-1.09v11.01h1.1v-6.7q0-1.57.82-2.47t2.35-.91q3.14 0 3.14 3.5v6.58zm13.86-.24V20.27h-1.09v1.92q-1.76-2.08-4.4-2.08-2.4 0-4.05 1.65t-1.63 4.03 1.65 4.05 4.03 1.63q2.67 0 4.4-2.08V31q0 2.06-1.15 3.2t-3.17 1.15q-1.52 0-2.61-.5-1.39-.65-1.68-1.95h-1.1q.88 3.54 5.39 3.54 2.43 0 3.92-1.49t1.5-3.92m-.88-5.25a4.61 4.61 0 01-9.22 0 4.61 4.61 0 019.22 0m5.5 5.49V11.55h-1.07v19.73zm14.29-5.73q0-2.43-1.63-3.95t-4.05-1.52q-2.48 0-4.1 1.63t-1.6 4.08 1.62 4.08 4.08 1.62q1.04 0 1.87-.26 2.16-.7 3.2-2.67l-.99-.45q-.9 1.46-2.05 1.94-.91.38-2.03.38-2.19 0-3.44-1.34-1.2-1.3-1.2-3.54zm-1.23-1.04h-8.93q1.07-3.36 4.48-3.36 1.63 0 2.88.9 1.3.94 1.57 2.46M82.22 0c-.63 0-1.14.8-1.14 1.78a120 120 0 01-.84 7.4q-.47.52-.5 1.48v.53a15 15 0 00-3.1 2.43 14.7 14.7 0 003.09 23.5v.22q.02.96.51 1.47c.32 1.75.71 5.98.84 7.41 0 .98.5 1.78 1.14 1.78h9.6c.62 0 1.14-.8 1.14-1.78a106 106 0 01.83-7.4q.48-.52.51-1.48v-.52a15 15 0 001.88-1.34 1 1 0 001.13-.02l1.16-1.17a1 1 0 00.03-1.14 15 15 0 003.17-6.71h.85a1 1 0 00.48-.48v-3.92a1 1 0 00-.48-.48h-.79a15 15 0 00-3.06-6.99 1 1 0 00-.19-.86l-1.17-1.17a1 1 0 00-.86-.19 15 15 0 00-2.15-1.43v-.26q-.03-.96-.5-1.47c-.33-1.75-.72-5.98-.84-7.4 0-1-.52-1.79-1.15-1.79zm4.8 11.09a12.9 12.9 0 010 25.8 12.9 12.9 0 010-25.8M93 15.38l-.46-.3-4.9 7.5.45.3zM86.55 24a.47.47 0 00.94 0 .47.47 0 00-.94 0M90.5 25.29q-.66 0-1.08.42t-.42.96a1 1 0 00.43 1 3 3 0 00.96.48l.6.23.38.18q.44.34.44.82 0 1.06-1.26 1.06-.56 0-.9-.25l-.55-.64-.46.28a2 2 0 001.92 1.16q.75 0 1.28-.45t.52-1.16-.57-1.2a8 8 0 00-1.19-.54l-.76-.36a1 1 0 01-.3-.61q0-.84.97-.84a2 2 0 011.16.45l.4-.35a2 2 0 00-1.57-.64m-3.76.08h.55v7.82h-.55z"/>
</svg>