<?xml version="1.0" standalone="no"?>
<!DOCTYPE svg PUBLIC "-//W3C//DTD SVG 20010904//EN"
 "http://www.w3.org/TR/2001/REC-SVG-20010904/DTD/svg10.dtd">
<svg version="1.0" xmlns="http://www.w3.org/2000/svg"
 width="960.000000pt" height="960.000000pt" viewBox="0 0 960.000000 960.000000"
 preserveAspectRatio="xMidYMid meet">
<metadata>
Created by potrace 1.11, written by Peter Selinger 2001-2013
</metadata>
<g transform="translate(0.000000,960.000000) scale(0.100000,-0.100000)"
fill="#000000" stroke="none">
<path d="M3632 9573 c-94 -64 -135 -159 -146 -338 -3 -38 -7 -90 -10 -115 -3
-25 -8 -70 -11 -100 -2 -30 -7 -77 -9 -105 -3 -27 -8 -79 -11 -115 -3 -36 -8
-87 -11 -115 -8 -77 -14 -136 -18 -180 -4 -44 -14 -130 -20 -185 -3 -19 -10
-80 -16 -135 -6 -55 -13 -111 -16 -125 -4 -25 -13 -91 -19 -140 -15 -123 -21
-146 -47 -183 -31 -43 -47 -75 -52 -103 -3 -13 -7 -27 -9 -32 -10 -15 -19 -99
-19 -174 l0 -77 -36 -23 c-96 -58 -185 -119 -276 -188 -54 -41 -108 -82 -120
-90 -21 -15 -332 -326 -351 -351 -10 -13 -91 -116 -120 -151 -22 -27 -180
-271 -193 -298 -7 -14 -29 -57 -50 -96 -42 -77 -134 -283 -148 -329 -2 -5 -10
-30 -19 -55 -19 -52 -71 -223 -79 -260 -3 -14 -10 -43 -15 -65 -6 -22 -12 -53
-15 -70 -3 -16 -8 -41 -11 -55 -9 -43 -17 -104 -32 -240 -16 -149 -9 -530 13
-670 16 -101 34 -203 49 -270 21 -94 21 -92 27 -110 14 -42 39 -127 43 -145 2
-11 12 -41 24 -68 11 -26 21 -51 22 -55 1 -4 5 -17 10 -30 5 -13 9 -25 9 -27
0 -13 117 -257 164 -340 38 -68 98 -168 106 -175 3 -3 25 -34 50 -70 44 -66
130 -177 185 -239 58 -67 170 -185 194 -205 14 -12 34 -30 45 -41 12 -12 50
-45 86 -75 36 -30 67 -57 70 -60 3 -3 21 -17 40 -30 19 -13 37 -27 40 -30 10
-11 136 -97 212 -144 l76 -47 0 -77 c-1 -131 22 -224 68 -287 30 -39 40 -68
49 -135 4 -30 8 -64 10 -75 2 -11 6 -40 9 -65 3 -25 8 -55 10 -67 3 -12 7 -48
11 -80 3 -32 8 -76 11 -98 3 -22 7 -56 9 -75 2 -19 6 -60 9 -90 8 -70 13 -119
21 -200 4 -36 8 -81 11 -100 3 -19 7 -60 9 -90 2 -30 6 -75 9 -100 3 -25 8
-76 11 -115 3 -38 8 -88 10 -110 2 -22 7 -78 11 -125 11 -132 15 -152 51 -223
31 -62 84 -114 131 -127 24 -6 378 -10 1019 -10 976 0 983 0 1019 21 21 11 46
31 56 45 11 13 26 31 34 39 9 8 12 15 8 15 -4 0 0 8 8 18 13 14 19 30 33 82 5
22 16 109 20 175 3 44 8 94 10 110 2 17 7 60 10 95 11 137 16 186 20 225 3 22
7 65 10 95 2 30 7 75 10 100 8 70 14 130 20 190 8 74 14 128 20 170 10 71 16
118 20 160 2 24 7 61 10 84 24 164 35 209 60 246 52 76 66 128 72 270 3 84 7
108 21 118 9 7 73 49 142 94 68 44 142 95 164 114 46 40 50 40 82 15 22 -18
50 -20 142 -12 23 2 303 284 319 321 20 46 17 112 -6 151 l-20 32 35 46 c18
25 37 51 42 56 52 68 192 286 192 301 0 2 11 22 25 44 14 22 23 40 19 40 -3 0
4 13 15 29 12 16 21 32 21 35 0 5 17 45 70 161 21 48 108 303 114 336 3 13 5
24 6 24 1 0 3 7 5 15 2 8 12 55 23 104 12 50 19 93 16 97 -2 4 0 10 6 14 6 4
8 10 5 15 -11 17 20 23 119 23 55 0 113 4 128 9 57 20 58 28 58 485 -1 313 -4
422 -13 434 -23 29 -66 51 -99 49 -98 -6 -195 1 -195 13 -2 85 -133 550 -164
582 -5 5 -9 19 -9 32 0 13 -4 23 -10 23 -5 0 -10 6 -10 14 0 8 -6 27 -14 43
-8 15 -20 42 -27 58 -8 17 -26 51 -41 78 -15 26 -26 47 -24 47 4 0 -78 142
-104 180 -49 75 -60 92 -60 100 0 4 -3 10 -7 12 -5 2 -34 38 -66 81 -53 71
-57 80 -44 95 14 16 34 76 32 97 -7 62 -24 86 -154 218 -138 141 -187 177
-239 177 -35 0 -94 -19 -104 -34 -4 -6 -27 5 -60 27 -29 20 -87 60 -128 88
-141 98 -158 109 -168 109 -23 0 -31 31 -33 124 -2 112 -22 191 -67 264 -38
62 -46 89 -56 194 -2 19 -6 43 -9 54 -3 10 -9 50 -12 89 -4 38 -8 72 -10 75
-1 3 -5 37 -9 75 -4 39 -8 81 -11 95 -2 14 -6 54 -9 90 -4 36 -8 76 -10 90 -2
14 -7 57 -10 95 -4 39 -9 85 -11 103 -2 18 -7 65 -10 105 -3 40 -7 83 -9 97
-3 14 -7 61 -10 105 -4 44 -8 91 -10 105 -3 14 -7 68 -11 120 -6 107 -13 156
-24 185 -21 55 -57 118 -83 146 -60 62 -4 59 -1091 59 l-994 0 -41 -27z m1338
-2207 c14 -4 48 -9 75 -12 28 -2 57 -7 65 -10 8 -3 35 -8 59 -10 23 -2 52 -9
62 -15 10 -5 19 -8 19 -5 0 3 15 0 33 -5 17 -6 43 -12 57 -15 14 -3 52 -14 85
-25 33 -11 67 -22 75 -24 53 -11 301 -119 390 -168 30 -17 69 -38 86 -48 46
-26 208 -132 214 -141 3 -4 23 -19 45 -34 90 -61 331 -289 410 -389 22 -27 43
-52 46 -55 26 -21 219 -310 219 -328 0 -6 4 -12 8 -14 25 -10 176 -355 217
-493 9 -33 20 -67 23 -75 7 -20 9 -29 17 -69 3 -19 8 -37 10 -41 4 -7 10 -31
30 -143 28 -152 36 -250 37 -442 0 -131 -2 -185 -17 -320 -4 -32 -13 -95 -21
-132 -2 -13 -6 -35 -9 -50 -13 -69 -31 -151 -35 -158 -1 -3 -3 -8 -4 -12 -11
-40 -30 -106 -43 -143 -8 -25 -16 -52 -18 -60 -13 -52 -144 -334 -198 -425
-55 -93 -189 -288 -220 -320 -7 -7 -28 -32 -47 -56 -39 -49 -224 -235 -285
-288 -169 -144 -528 -373 -567 -363 -5 1 -8 -3 -8 -8 0 -6 -4 -10 -10 -10 -5
0 -33 -11 -62 -24 -128 -58 -380 -142 -453 -152 -11 -1 -56 -9 -100 -18 -179
-35 -255 -41 -485 -40 -176 0 -289 6 -345 18 -11 2 -41 7 -67 10 -26 4 -69 11
-95 16 -26 6 -59 13 -73 15 -14 3 -32 8 -40 11 -8 3 -26 8 -40 11 -32 6 -109
29 -180 55 -30 11 -59 21 -65 22 -5 2 -21 8 -35 14 -14 6 -68 30 -120 52 -96
42 -191 92 -265 139 -22 14 -42 26 -45 26 -3 0 -16 8 -30 18 -183 131 -191
138 -269 202 -129 108 -337 337 -432 475 -24 35 -50 71 -57 78 -6 7 -12 17
-12 22 0 5 -6 15 -13 22 -25 28 -154 276 -191 368 -10 25 -23 56 -29 70 -6 14
-11 27 -12 30 -4 17 -48 148 -55 165 -19 46 -71 293 -85 410 -23 183 -24 487
-1 640 3 22 8 56 10 75 29 234 133 551 262 799 53 103 166 287 204 334 5 7 42
53 82 102 39 50 119 138 177 196 133 132 333 299 360 299 6 0 11 4 11 9 0 15
185 123 340 198 81 39 254 110 285 118 6 1 17 5 25 8 18 7 91 30 105 33 201
49 326 72 435 80 41 3 77 8 79 10 7 6 453 -3 481 -10z"/>
<path d="M5703 6467 c-137 -211 -282 -432 -292 -444 -6 -7 -16 -24 -23 -38 -6
-14 -14 -25 -18 -25 -4 0 -12 -11 -18 -25 -7 -14 -16 -31 -22 -38 -6 -7 -39
-57 -75 -112 -36 -55 -69 -107 -75 -115 -5 -8 -48 -73 -94 -145 -47 -71 -90
-135 -95 -142 -6 -7 -11 -17 -11 -23 0 -5 -4 -10 -10 -10 -5 0 -10 -4 -10 -9
0 -5 -37 -64 -81 -131 l-81 -123 23 -18 c41 -31 72 -45 76 -34 3 10 84 134
123 190 12 17 71 107 132 200 61 94 136 208 167 255 31 47 58 90 61 95 12 24
66 100 73 103 4 2 7 7 7 12 0 4 36 62 80 129 44 66 79 124 78 127 -2 3 5 10
15 15 9 6 17 15 17 20 0 6 20 39 45 75 25 35 45 68 45 73 0 5 3 11 8 13 4 2
33 43 65 92 l57 89 -42 29 c-24 15 -45 28 -48 28 -3 0 -38 -51 -77 -113z"/>
<path d="M4619 4871 c-67 -56 -33 -161 53 -161 56 0 98 42 93 94 -7 79 -88
115 -146 67z"/>
<path d="M5257 4523 c-73 -25 -152 -107 -173 -179 -26 -92 -10 -184 46 -250
21 -25 92 -76 110 -80 3 0 21 -8 40 -16 19 -8 78 -32 130 -52 120 -46 152 -66
188 -115 24 -33 29 -51 31 -105 5 -146 -85 -218 -267 -212 -104 4 -187 51
-251 144 l-23 32 -28 -20 c-15 -11 -33 -20 -38 -20 -24 0 -21 -22 7 -62 89
-129 205 -188 361 -182 92 3 110 7 168 36 100 48 161 126 178 228 12 75 4 133
-28 196 -41 83 -104 124 -321 208 -133 52 -161 69 -189 123 -25 45 -20 132 9
171 55 73 196 88 316 33 24 -11 50 -27 57 -36 18 -22 31 -19 68 16 l33 31 -23
25 c-12 13 -55 40 -95 60 -65 32 -83 36 -165 39 -68 2 -106 -1 -141 -13z"/>
<path d="M4626 4523 c-3 -4 -6 -357 -6 -785 l0 -779 38 2 c21 2 43 0 49 -4 6
-4 14 0 17 8 8 23 7 1555 -1 1556 -47 6 -92 7 -97 2z"/>
</g>
</svg>
